<?xml version="1.0" standalone="no"?>
<!DOCTYPE svg PUBLIC "-//W3C//DTD SVG 20010904//EN"
 "http://www.w3.org/TR/2001/REC-SVG-20010904/DTD/svg10.dtd">
<svg version="1.0" xmlns="http://www.w3.org/2000/svg"
 width="200.000000mm" height="200.000000mm"
    viewBox="0 0 200.000000 200.000000"
 preserveAspectRatio="xMidYMid meet">

<g transform="translate(0.000000,200.000000) scale(0.100000,-0.100000)"
fill="#000000" stroke="none">
<path d="M938 1336 c-52 -19 -82 -40 -111 -78 -58 -76 -59 -173 -4 -255 97
-143 315 -118 384 44 18 45 16 121 -6 169 -24 53 -91 109 -146 123 -55 14 -71
13 -117 -3z m117 -21 c0 -5 -25 -13 -57 -16 -74 -8 -121 -38 -148 -95 -40 -82
-16 -171 58 -219 31 -20 36 -35 15 -42 -17 -6 -94 68 -110 104 -43 104 19 241
124 273 36 11 118 8 118 -5z m75 -31 c104 -88 92 -262 -23 -328 -54 -30 -89
-38 -134 -30 -33 6 -35 8 -19 20 10 7 24 10 31 8 22 -9 93 15 125 42 42 36 60
75 60 131 0 61 -26 111 -73 142 -35 23 -40 41 -12 41 7 0 28 -12 45 -26z"/>
<path d="M640 795 c0 -50 4 -85 10 -85 6 0 10 35 10 85 0 50 -4 85 -10 85 -6
0 -10 -35 -10 -85z"/>
<path d="M700 796 c0 -78 1 -84 23 -90 30 -8 71 24 75 58 5 37 -24 69 -55 61
-20 -5 -23 -2 -23 25 0 16 -4 30 -10 30 -6 0 -10 -35 -10 -84z m70 -6 c19 -35
-12 -83 -41 -64 -10 6 -12 67 -2 77 12 13 32 7 43 -13z"/>
<path d="M1340 855 c0 -18 -5 -25 -18 -25 -29 0 -52 -33 -52 -74 0 -40 10 -48
63 -50 l32 -1 3 88 c2 73 0 87 -13 87 -9 0 -15 -9 -15 -25z m0 -84 c0 -44 -13
-59 -35 -41 -28 23 -12 80 22 80 8 0 13 -14 13 -39z"/>
<path d="M520 820 c-15 -10 -13 -11 29 -13 36 -3 36 -22 -1 -32 -61 -18 -42
-77 22 -67 29 4 30 7 30 51 0 26 -5 52 -12 59 -14 14 -47 15 -68 2z m60 -74
c0 -18 -30 -30 -43 -17 -5 5 -6 14 -3 20 10 16 46 13 46 -3z"/>
<path d="M842 814 c-43 -30 -20 -106 32 -106 34 0 44 9 52 49 5 24 1 36 -15
52 -25 25 -39 26 -69 5z m53 -49 c0 -30 -4 -41 -17 -43 -26 -5 -44 39 -28 67
19 36 45 22 45 -24z"/>
<path d="M954 821 c-2 -2 -4 -28 -4 -58 0 -40 4 -53 15 -53 11 0 15 12 15 46
0 37 4 47 20 51 31 8 24 22 -11 20 -17 -1 -32 -4 -35 -6z"/>
<path d="M1062 823 c-37 -15 -36 -99 1 -112 25 -9 57 -3 57 11 0 5 -8 7 -19 3
-24 -7 -43 17 -39 52 2 22 9 29 31 31 15 2 25 8 22 13 -7 10 -32 11 -53 2z"/>
<path d="M1157 812 c-20 -22 -22 -75 -4 -89 42 -33 90 -9 90 47 0 53 -53 79
-86 42z m61 -35 c3 -27 -12 -57 -29 -57 -15 0 -31 42 -24 67 9 36 49 28 53
-10z"/>
<path d="M1416 817 c-25 -19 -24 -76 2 -97 22 -18 72 -16 72 2 0 5 -9 6 -20 3
-21 -7 -50 9 -50 26 0 5 16 9 35 9 30 0 35 3 35 23 0 43 -38 60 -74 34z m52
-24 c2 -8 -6 -13 -22 -13 -25 0 -33 10 -19 24 10 10 36 3 41 -11z"/>
</g>
</svg>
